<?xml version="1.0" encoding="UTF-8"?>
<svg width="24px" height="24px" viewBox="0 0 24 24" version="1.1" xmlns="http://www.w3.org/2000/svg" xmlns:xlink="http://www.w3.org/1999/xlink">
    <title>B23331DA-95C9-4A05-BC45-040F751FE4D0@1x</title>
    <g id="Symbols" stroke="none" stroke-width="1" fill="none" fill-rule="evenodd">
        <g id="GAM/Aplications" fill="#121212">
            <path d="M18.8001167,5.00005705 L4.86011666,5.00005705 C4.63121069,4.99740743 4.41088868,5.08714407 4.24901637,5.24901637 C4.08714407,5.41088868 3.99740743,5.63121069 4.00005705,5.86011666 L4.00005705,17.7901167 C3.99744423,18.0199305 4.08686996,18.2412527 4.24844181,18.4047033 C4.41001366,18.5681539 4.63028725,18.6601167 4.86011666,18.6601167 L18.8001167,18.6601167 C19.2806044,18.6601167 19.6701167,18.2706044 19.6701167,17.7901167 L19.6701167,5.86011666 C19.6701167,5.63028725 19.5781539,5.41001366 19.4147033,5.24844181 C19.2512527,5.08686996 19.0299305,4.99744423 18.8001167,5.00005705 Z M18.1601167,17.1601167 L5.50011666,17.1601167 L5.50011666,6.46011666 L18.1601167,6.46011666 L18.1601167,17.1601167 Z M9.33011666,11.0101167 L6.63011666,11.0101167 L6.63011666,8.12011666 L9.33011666,8.12011666 L9.33011666,11.0101167 Z M13.1801167,11.0101167 L10.4801167,11.0101167 L10.4801167,8.12011666 L13.1801167,8.12011666 L13.1801167,11.0101167 Z M17.0201167,11.0101167 L14.3301167,11.0101167 L14.3301167,8.12011666 L17.0201167,8.12011666 L17.0201167,11.0101167 Z M9.33011666,15.5401167 L6.63011666,15.5401167 L6.63011666,12.6501167 L9.33011666,12.6501167 L9.33011666,15.5401167 Z M13.1801167,15.5401167 L10.4801167,15.5401167 L10.4801167,12.6501167 L13.1801167,12.6501167 L13.1801167,15.5401167 Z M17.0201167,15.5401167 L14.3301167,15.5401167 L14.3301167,12.6501167 L17.0201167,12.6501167 L17.0201167,15.5401167 Z" id="Shape"></path>
        </g>
    </g>
</svg>