<?xml version="1.0" encoding="UTF-8"?>
<svg width="24px" height="24px" viewBox="0 0 24 24" version="1.1" xmlns="http://www.w3.org/2000/svg" xmlns:xlink="http://www.w3.org/1999/xlink">
    <title>630A708C-281C-44C6-8611-1023DECF93D4@1x</title>
    <g id="Symbols" stroke="none" stroke-width="1" fill="none" fill-rule="evenodd">
        <g id="GXFlow/Settings" fill="#121212">
            <path d="M16.45,10.81 C16.5614988,10.8122043 16.6567883,10.8909218 16.68,11 L16.68,11 L16.88,12.19 C17.1581447,12.306086 17.4202771,12.4573162 17.66,12.64 L17.66,12.64 L18.8,12.18 C18.9052297,12.1404191 19.0236518,12.1827127 19.08,12.28 L19.08,12.28 L20,13.87 C20.0590505,13.9707328 20.0332516,14.0997277 19.94,14.17 L19.94,14.17 L18.94,14.92 L18.94,15.84 L19.94,16.58 C20.0332516,16.6502723 20.0590505,16.7792672 20,16.88 L20,16.88 L19.04,18.47 C18.9836518,18.5672873 18.8652297,18.6095809 18.76,18.57 L18.76,18.57 L17.62,18.11 C17.3802771,18.2926838 17.1181447,18.443914 16.84,18.56 L16.84,18.56 L16.67,19.78 C16.6467883,19.8890782 16.5514988,19.9677957 16.44,19.97 L16.44,19.97 L14.6,19.97 C14.4885012,19.9677957 14.3932117,19.8890782 14.37,19.78 L14.37,19.78 L14.2,18.56 C13.9217322,18.4461189 13.6621652,18.2910528 13.43,18.1 L13.43,18.1 L12.28,18.57 C12.1747703,18.6095809 12.0563482,18.5672873 12,18.47 L12,18.47 L11.09,16.88 C11.0309495,16.7792672 11.0567484,16.6502723 11.15,16.58 L11.15,16.58 L12.15,15.82 L12.15,14.92 L11.15,14.17 C11.0567484,14.0997277 11.0309495,13.9707328 11.09,13.87 L11.09,13.87 L12.01,12.28 C12.0663482,12.1827127 12.1847703,12.1404191 12.29,12.18 L12.29,12.18 L13.44,12.67 C13.6746961,12.4852228 13.933817,12.3337885 14.21,12.22 L14.21,12.22 L14.38,11 C14.4032117,10.8909218 14.4985012,10.8122043 14.61,10.81 L14.61,10.81 Z M16.2410942,13.6729485 C15.5538638,13.384998 14.7608125,13.5399427 14.2325007,14.0653832 C13.7041889,14.5908237 13.5449248,15.3830189 13.8291259,16.0718083 C14.1133271,16.7605977 14.7848818,17.21 15.53,17.21 C16.5423115,17.21 17.3644983,16.3922965 17.3700274,15.38 C17.3740496,14.6348928 16.9283246,13.9608991 16.2410942,13.6729485 Z M9.52,4.04993379 C9.62981298,4.04737998 9.72615207,4.12277579 9.75,4.23 L9.75,4.23 L9.94,5.45 C10.2186256,5.56087695 10.4809977,5.70888169 10.72,5.89 L10.72,5.89 L11.86,5.41 C11.9652297,5.37041906 12.0836518,5.41271266 12.14,5.51 L12.14,5.51 L13.05,7.09 C13.1099528,7.18522809 13.0883806,7.31034663 13,7.38 L13,7.38 L12.12,8.15 C12.1598813,8.44867457 12.1598813,8.75132543 12.12,9.05 L12.12,9.05 L13.12,9.8 C13.2078502,9.86922039 13.2331707,9.99160287 13.18,10.09 L13.18,10.09 L12.28,11.69 C12.2302345,11.7947207 12.1077376,11.8428445 12,11.8 L12,11.8 L10.79,11.35 L10.41,11.61 L10,11.82 L9.88,13 C9.88868606,13.0660054 9.86834573,13.1325363 9.82423523,13.1824004 C9.78012473,13.2322644 9.71657204,13.2605691 9.65,13.26 L9.65,13.26 L7.82,13.26 C7.70554225,13.2662578 7.60546025,13.1835813 7.59,13.07 L7.59,13.07 L7.39,11.85 C7.1119179,11.7422413 6.84957182,11.5976146 6.61,11.42 L6.61,11.42 L5.48,11.9 C5.37186511,11.9408553 5.24997012,11.8988225 5.19,11.8 L5.19,11.8 L4.26,10.22 C4.18580794,10.1337612 4.18580794,10.0062388 4.26,9.92 L4.26,9.92 L5.26,9.15 C5.21474399,8.85170676 5.21474399,8.54829324 5.26,8.25 L5.26,8.25 L4.26,7.51 C4.17558143,7.4380387 4.15455338,7.31607599 4.21,7.22 L4.21,7.22 L5.1,5.61 C5.1563482,5.51271266 5.27477027,5.47041906 5.38,5.51 L5.38,5.51 L6.53,6 L6.9,5.69 L7.31,5.49 L7.46,4.27 C7.47037204,4.15636919 7.56589777,4.06952761 7.68,4.07 L7.68,4.07 Z M10.2383061,7.72354876 C9.72134229,6.85766242 8.60129435,6.5732058 7.73381186,7.08748672 C6.86632936,7.60176765 6.5784069,8.72092966 7.09,9.59 C7.60969121,10.4618817 8.73725989,10.7482483 9.61,10.23 C10.4742819,9.71035823 10.7552699,8.5894351 10.2383061,7.72354876 Z" id="Combined-Shape"></path>
        </g>
    </g>
</svg>