<?xml version="1.0" encoding="UTF-8"?>
<svg width="24px" height="24px" viewBox="0 0 24 24" version="1.1" xmlns="http://www.w3.org/2000/svg" xmlns:xlink="http://www.w3.org/1999/xlink">
    <title>EAC0CD1D-6440-46F8-88CF-6B7DB146031D@1x</title>
    <g id="Symbols" stroke="none" stroke-width="1" fill="none" fill-rule="evenodd">
        <g id="GXFlow/Rol" fill="#121212">
            <path d="M19.44,15.9098827 L19.44,15.5298827 L19.44,15.1398827 L20.25,14.5198827 C20.3245048,14.4593483 20.3454912,14.3544164 20.3,14.2698827 L19.53,12.9398827 C19.4819622,12.8560912 19.3787052,12.8216722 19.29,12.8598827 L18.34,13.2398827 C18.14222,13.0859836 17.9233061,12.9613711 17.69,12.8698827 L17.55,11.8698827 C17.5307053,11.7752581 17.4465522,11.7079356 17.35,11.7098416 L15.82,11.7098416 C15.7257459,11.7087015 15.644876,11.7768025 15.63,11.8698827 L15.48,12.8698827 C15.2466939,12.9613711 15.02778,13.0859836 14.83,13.2398827 L13.88,12.8598827 C13.7886785,12.8154498 13.6785605,12.8506876 13.63,12.9398827 L12.86,14.2698827 C12.8014999,14.3429493 12.8014999,14.4468162 12.86,14.5198827 L13.67,15.1398827 L13.67,15.5298827 L13.67,15.8998827 L12.86,16.5398827 C12.8014999,16.6129493 12.8014999,16.7168162 12.86,16.7898827 L13.63,18.1098827 C13.6777371,18.193941 13.7787625,18.2318256 13.87,18.1998827 L14.82,17.8098827 C15.0173984,17.9669542 15.2362907,18.094922 15.47,18.1898827 L15.62,19.1898827 C15.634876,19.282963 15.7157459,19.351064 15.81,19.3499239 L17.34,19.3499239 C17.4365522,19.3518299 17.5207053,19.2845074 17.54,19.1898827 L17.68,18.1898827 C17.9137093,18.094922 18.1326016,17.9669542 18.33,17.8098827 L19.28,18.1998827 C19.3712375,18.2318256 19.4722629,18.193941 19.52,18.1098827 L20.29,16.7898827 C20.3354912,16.7053491 20.3145048,16.6004172 20.24,16.5398827 L19.44,15.9098827 Z M16.63,17.0698827 C16.0062341,17.0739332 15.4416324,16.7013033 15.2001157,16.1261773 C14.9585989,15.5510513 15.087875,14.8870363 15.5275143,14.4445236 C15.9671536,14.0020108 16.6303123,13.8684117 17.2069995,14.1061766 C17.7836867,14.3439415 18.16,14.9061037 18.16,15.5298827 C18.16,16.3765113 17.4766107,17.0643851 16.63,17.0698827 Z M19.28,19.1898827 L18.6,19.1898827 L18.6,18.9898827 L18.93,19.1298827 C19.030016,19.1642924 19.1343679,19.1844895 19.24,19.1898827 L19.28,19.1898827 Z M13.98,19.1898827 C14.0749213,19.1838377 14.168853,19.1670642 14.26,19.1398827 L14.63,18.9898827 L14.63,19.1898827 L13.98,19.1898827 Z M20.24,18.8598827 L20.24,19.1898827 L19.59,19.1898827 C19.8215886,19.1428891 20.0339423,19.0280092 20.2,18.8598827 L20.24,18.8598827 Z M8.79994666,7.77988274 C8.81107677,5.68775823 10.5111885,3.99813405 12.6033415,4.00000155 C14.6954945,4.00187214 16.3925847,5.69453125 16.3999472,7.7866722 C16.4072621,9.87881316 14.7220884,11.5833364 12.63,11.5998827 C11.6135133,11.6079221 10.6361818,11.2083644 9.91645569,10.4905175 C9.19672962,9.77267058 8.79461811,8.79638695 8.79994666,7.77988274 L8.79994666,7.77988274 Z M13.63,19.1898827 L5,19.1898827 L5,16.3398827 C5,13.7998827 10.06,12.5398827 12.6,12.5398827 L12.72,12.5398827 L12.01,13.7698827 C11.7132374,14.2811224 11.836739,14.9326998 12.3,15.2998827 L12.59,15.5298827 L12.3,15.7498827 C11.8352306,16.120524 11.711876,16.7755797 12.01,17.2898827 L12.78,18.5998827 C12.9562509,18.9179546 13.2703751,19.1359938 13.63,19.1898827 L13.63,19.1898827 Z" id="b740d319-0065-4237-af5c-0db9f2e7c85b"></path>
        </g>
    </g>
</svg>