<?xml version="1.0" encoding="UTF-8"?>
<svg width="24px" height="24px" viewBox="0 0 24 24" version="1.1" xmlns="http://www.w3.org/2000/svg" xmlns:xlink="http://www.w3.org/1999/xlink">
    <title>6BEC9831-DD3F-491F-B93B-43218EFB5A7D@1x</title>
    <g id="Symbols" stroke="none" stroke-width="1" fill="none" fill-rule="evenodd">
        <g id="GAM/Repository" fill="#121212">
            <path d="M19.4912522,8.72125223 C19.4280269,8.21116265 19.0048334,7.82182464 18.4912522,7.80125223 L11.7912522,7.80125223 L11.7912522,7.00125223 C11.7915951,6.72714097 11.6794027,6.46490587 11.4809082,6.27586348 C11.2824137,6.08682108 11.0150208,5.98754644 10.7412522,6.00125223 L5.00125223,6.00125223 C4.72714097,6.00090936 4.46490587,6.11310176 4.27586348,6.31159627 C4.08682108,6.51009079 3.98754644,6.77748362 4.00125223,7.05125223 L4.00125223,17.5012522 C4.00090936,17.7753635 4.11310176,18.0375986 4.31159627,18.226641 C4.51009079,18.4156834 4.77748362,18.514958 5.05125223,18.5012522 L18.4612522,18.5012522 C19.013537,18.5012522 19.4612522,18.053537 19.4612522,17.5012522 L19.4612522,8.72125223 L19.4912522,8.72125223 Z M18.0112522,11.6512522 L5.45125223,11.6512522 L5.45125223,7.50125223 L10.2912522,7.50125223 L10.2912522,9.30125223 L18.0112522,9.30125223 L18.0112522,11.6512522 Z" id="Shape"></path>
        </g>
    </g>
</svg>