<?xml version="1.0" encoding="UTF-8"?>
<svg width="115px" height="22px" viewBox="0 0 115 22" version="1.1" xmlns="http://www.w3.org/2000/svg" xmlns:xlink="http://www.w3.org/1999/xlink">
    <title>2D4A0114-131C-4CDA-90F3-08FF3D374AE9@1x</title>
    <g id="Desktop" stroke="none" stroke-width="1" fill="none" fill-rule="evenodd">
        <g id="GAM-dashboard" transform="translate(-18.000000, -19.000000)" fill="#FFFFFF">
            <g id="Genexus-logo" transform="translate(18.000000, 13.000000)">
                <path d="M42.5116061,12 C43.8707299,12 45.2282605,12.5406642 46.0504269,13.6235762 C47.1131884,15.0389471 47.1339019,16.9513923 46.8327596,18.6233698 L46.8327596,18.6233698 L45.3812217,26.8718994 C45.290401,27.3931819 44.9669518,28 44.3519203,28 L44.3519203,28 L42.8812623,28 C42.294911,28 41.8758611,27.4335289 41.9778352,26.8331663 L41.9778352,26.8331663 L43.5664009,17.4952692 C43.7894693,16.1912559 43.5186005,15.2067904 42.0176689,15.2067904 L42.0176689,15.2067904 L38.7290034,15.2067904 C38.5393952,15.2067904 38.423081,15.3197618 38.3896207,15.50213 L38.3896207,15.50213 L36.4377722,26.8654439 C36.3469515,27.3915681 36.0203157,28 35.4020975,28 L35.4020975,28 L33.9266594,28 C33.3339348,28 32.9132915,27.4125485 33.0152657,26.8267108 C33.8310587,22.2836447 34.6117981,17.7325092 35.3590772,13.1749182 C35.4658314,12.5100005 35.7972473,11.9967874 36.5477131,12 L36.5477131,12 Z M20.4144948,14.6494542 C22.3327195,12.3223533 25.92443,11.3596349 28.8216108,12.445084 C31.287191,13.3934573 32.201655,15.8767608 31.9635306,18.2692118 C31.892424,18.9960323 31.7766691,19.7180712 31.5997294,20.4289527 C31.4525552,20.9995705 31.0854467,21.4028284 30.4884819,21.4139858 L30.4884819,21.4139858 L21.8911971,21.4139858 C21.6894528,21.4139858 21.5422786,21.5446859 21.5191276,21.7359545 C21.3719535,22.799089 21.4562892,24.0566798 22.6006095,24.5826683 C23.2752954,24.8918858 24.1533794,24.9126066 24.935552,24.9126066 L24.935552,24.9126066 L27.1580469,24.9126066 C28.6000227,24.9126066 29.7625331,25.9199544 29.7625331,27.381565 C29.7625331,27.7051276 29.4714921,28 29.1324955,28 L29.1324955,28 L23.956596,28 C21.5240886,28 19.1345758,26.8444191 18.3193303,24.5428207 C17.7008682,22.7943072 18.0993959,20.4783637 18.5177674,18.7234746 C18.874954,17.2347676 19.4603433,15.8034412 20.4144948,14.6494542 Z M17.1729025,6 C17.736099,6 18.1031824,6.29202806 17.9741165,6.86944717 C17.7578893,7.8201976 17.3757202,8.53035674 16.758886,8.95014707 C16.3348124,9.23885663 15.8017871,9.3898484 15.1346674,9.3898484 C12.9757475,9.3898484 10.3709636,9.07127234 8.36792838,9.99049702 C5.17759891,11.4409583 4.65169741,14.1370097 4.18186257,17.061784 L4.10138199,17.5652247 C4.03396138,17.9863096 3.96464316,18.4108763 3.88582278,18.8359605 C3.16846773,24.1129709 5.63157425,24.6529232 9.14179038,24.6637903 L9.53601511,24.6630342 C9.8015598,24.6613637 10.0724164,24.6576452 10.3477179,24.6535891 L10.7638953,24.6474656 C11.1133071,24.6425079 11.4689867,24.6383589 11.8292403,24.6383589 C12.0136201,24.6383589 12.1326289,24.5421223 12.1778857,24.3811751 L12.1778857,24.3811751 L12.7930438,20.7241873 C12.8802052,20.0372577 12.9656904,19.5212309 11.8392974,19.3503281 C10.6676475,19.1362848 9.58315895,18.1042311 9.58315895,16.8597933 C9.58315895,16.5163285 9.84464305,16.2591447 10.2335168,16.2591447 L10.2335168,16.2591447 L16.0850616,16.2591447 C16.9013613,16.2591447 17.1913404,16.9576891 17.0857411,17.6761445 L17.0857411,17.6761445 L15.3659803,26.8020213 C15.2452953,27.4458104 14.9318497,28 14.1138738,28 L14.1138738,28 L6.80572852,28 C4.04338371,28 1.896197,26.6161852 0.674261706,24.3297383 C-0.212437568,22.6671695 -0.0498480985,20.7075948 0.186493296,18.8824195 C0.41612997,17.1501622 0.702756768,15.3183498 1.18717282,13.6308922 C1.69673157,11.8637906 2.56666904,10.2974583 3.72993803,9.04970209 C5.50501276,7.15649747 7.96396897,6 10.8855509,6 L10.8855509,6 Z M51.4136773,14.6494542 C53.3318308,12.3223533 56.9250614,11.3596349 59.8221347,12.445084 C62.2876234,13.3934573 63.2003999,15.8767608 62.9639378,18.2692118 C62.8911803,18.9960323 62.7770832,19.7180712 62.5984965,20.4289527 C62.4513278,20.9995705 62.0858865,21.4028284 61.4872903,21.4139858 L61.4872903,21.4139858 L52.8919783,21.4139858 C52.6902415,21.4139858 52.5414192,21.5446859 52.5182691,21.7359545 C52.3711004,22.799089 52.4570866,24.0566798 53.6013644,24.5826683 C54.2743717,24.8918858 55.1540766,24.9126066 55.9362202,24.9126066 L55.9362202,24.9126066 L58.156979,24.9126066 C59.5989013,24.9126066 60.7613685,25.9199544 60.7613685,27.381565 C60.7613685,27.7051276 60.4719918,28 60.1330078,28 L60.1330078,28 L54.9556469,28 C52.5232299,28 50.1354595,26.8444191 49.3185906,24.5428207 C48.7018051,22.7943072 49.0986644,20.4783637 49.5170203,18.7234746 C49.8741937,17.2347676 50.4612148,15.8034412 51.4136773,14.6494542 Z M96.5903134,13.2316681 C98.7129635,10.553188 102.513009,10.8483879 105.48731,11.2853504 C106.398867,11.4187741 107.018985,11.5738791 106.999556,12.4144482 C106.988222,12.9147869 106.95584,13.4051189 106.748594,13.8787729 C106.487918,14.3040608 106.162477,14.5275454 105.660554,14.4808472 C104.276217,14.3607659 100.905235,13.6969831 99.7362395,14.7627047 C99.4010842,15.0679113 99.2246015,15.5415653 99.3897504,15.9885346 C99.7524305,16.8074223 100.98781,17.3944864 101.719646,17.888154 C102.919405,18.7003706 104.240597,19.4258617 105.076056,20.681712 C105.864562,21.9008707 105.75932,23.4819412 105.327018,24.8128422 C104.039827,27.4679731 101.395825,28 98.766394,28 C97.6152085,28 96.4203071,27.8882577 95.2950274,27.6564341 C94.7736747,27.5480273 94.0790776,27.3112003 94.0094559,26.6640956 C93.9641209,26.2454788 94.0871731,25.5066453 94.2636558,25.1080421 C94.5599525,24.4392559 95.2254057,24.4659407 95.921622,24.5560017 C97.3027208,24.8161778 100.200923,25.2598115 101.481637,24.3842187 C102.163282,23.9589308 102.436911,22.9015482 101.873461,22.257779 C100.485886,20.6850476 98.2887573,20.1496851 96.9400407,18.5202486 C95.7305673,17.0575917 95.3274095,15.0545689 96.5903134,13.2316681 Z M84.1170684,12 C84.7066563,12 85.1289287,12.5487185 85.0221655,13.1668337 L85.0221655,13.1668337 L83.4318717,22.503117 C83.2119714,23.8087442 83.4812696,24.7915958 84.9823285,24.7915958 L84.9823285,24.7915958 L88.2712727,24.7915958 C88.4608969,24.7915958 88.577221,24.6786243 88.6090906,24.49787 L88.6090906,24.49787 L90.5642914,13.1329422 C90.6503394,12.6197291 90.9817834,12 91.5968669,12 L91.5968669,12 L93.0724301,12 C93.6667984,12 94.0890708,12.5874515 93.983901,13.1716753 C93.1712259,17.7163553 92.3872334,22.2691047 91.6446713,26.8250818 C91.5347212,27.4883856 91.2032772,28.0032127 90.4527478,28 L90.4527478,28 L84.4883494,28 C83.1307039,28 81.7714648,27.4593358 80.9508222,26.3748099 C79.8879706,24.9594391 79.8656619,23.0469938 80.1668297,21.3766303 L80.1668297,21.3766303 L81.6200841,13.1281006 C81.7093191,12.6052042 82.0312022,12 82.6462857,12 L82.6462857,12 Z M68.3274377,6 C68.73975,6 69.0435592,6.23513933 69.2138258,6.6020234 L69.2138258,6.6020234 L71.9714778,12.5438776 C72.0532726,12.7173137 72.0582804,12.9074264 71.9865013,13.0875331 L71.9865013,13.0875331 L70.7211864,16.20438 L78.5651372,6.55866437 C78.8205372,6.24514526 79.1861097,6.04335903 79.6000914,6.04335903 L79.6000914,6.04335903 L81.06572,6.04335903 C81.9320767,6.04335903 82.2859643,6.85217163 81.7384401,7.53090715 L81.7384401,7.53090715 L74.0847874,17.0215309 L78.4800039,26.3637334 C78.6452627,26.7189439 78.742081,26.9607538 78.6085385,27.3543204 C78.4282562,27.8095901 78.0476601,27.9997028 77.5735844,27.9997028 L77.5735844,27.9997028 L76.1964277,27.9997028 C75.5053454,27.9997028 75.2566225,27.4743915 74.9761834,26.8740358 L74.9761834,26.8740358 L71.7544713,19.9932918 L65.7667608,27.3976794 C65.4629517,27.7662311 65.0890328,28.0097087 64.6466734,27.9997028 L64.6466734,27.9997028 L62.7804174,27.9997028 C62.3080109,27.9997028 62.017556,27.5227535 62.017556,27.0941662 C62.017556,26.7572999 62.207854,26.4904751 62.4131756,26.2386593 L62.4131756,26.2386593 L70.2053786,16.7196854 C69.3423604,14.8569149 68.5461135,12.9524531 67.5345293,11.1647271 C65.422889,7.50755998 62.1894919,6.6020234 54,6 L54,6 Z M27.5003508,15.4495944 C25.2216321,14.2796683 22.9776399,16.1429429 22.2467301,18.1640141 C22.1607407,18.3855668 22.2533447,18.5752415 22.5046983,18.5752415 L22.5046983,18.5752415 L28.0708573,18.5752415 C28.2494506,18.5752415 28.3833956,18.4381657 28.4015857,18.2739935 C28.5256088,17.2937421 28.5471062,16.0154305 27.5003508,15.4495944 Z M58.4992702,15.4495944 C56.2222897,14.2796683 53.9783808,16.1429429 53.2474982,18.1640141 C53.161512,18.3855668 53.2541125,18.5752415 53.5054567,18.5752415 L53.5054567,18.5752415 L59.0697555,18.5752415 C59.2466886,18.5752415 59.3822822,18.4381657 59.4021252,18.2739935 C59.5228366,17.2937421 59.5459867,16.0154305 58.4992702,15.4495944 Z M112.688087,9 L113.497776,11.4599092 L114.332674,9 L114.817598,9 L115,11.9773071 L115,12 L114.624815,12 L114.498764,9.38880484 L113.610479,11.9818457 L113.321305,11.9818457 L112.496787,9.38880484 L112.363322,12 L112,12 L112.203164,9 L112.688087,9 Z M111,9 L111,9.32980333 L110.17415,9.32980333 L110.17415,12 L109.821769,12 L109.821769,9.32980333 L109,9.32980333 L109,9 L111,9 Z" id="Combined-Shape"></path>
            </g>
        </g>
    </g>
</svg>