<?xml version="1.0" encoding="UTF-8"?>
<svg width="24px" height="24px" viewBox="0 0 24 24" version="1.1" xmlns="http://www.w3.org/2000/svg" xmlns:xlink="http://www.w3.org/1999/xlink">
    <title>AB7A24F1-1310-425E-BA32-5DC8301BE775@1x</title>
    <g id="Symbols" stroke="none" stroke-width="1" fill="none" fill-rule="evenodd">
        <g id="GAM/Security-policies" fill="#121212">
            <path d="M19.71,17.25 L19.71,15.82 C19.7092477,15.727065 19.6735483,15.6378166 19.61,15.57 C19.5560483,15.4752379 19.4657478,15.4066095 19.36,15.38 L19.36,14.23 C19.36,12.6338971 18.0661029,11.34 16.47,11.34 L15.81,11.34 C15.0383397,11.3319893 14.2955263,11.6329304 13.7470403,12.1757812 C13.1985544,12.7186321 12.8899584,13.4582981 12.89,14.23 L12.89,15.5 L12.82,15.57 C12.7543975,15.6373499 12.7153335,15.7261318 12.71,15.82 L12.71,18.88 L12.71,20.35 C12.7147507,20.4203222 12.7352567,20.4886755 12.77,20.55 C12.8291507,20.6951959 12.9733902,20.7873489 13.13,20.78 L14.81,20.78 L19.23,20.78 C19.3626452,20.7769304 19.4856049,20.7098615 19.56,20.6 C19.6425404,20.5261739 19.6898043,20.4207392 19.69,20.31 L19.71,17.25 Z M16.71,19.12 C16.7050298,19.2117509 16.6317509,19.2850298 16.54,19.29 L15.89,19.29 C15.7961116,19.29 15.72,19.2138884 15.72,19.12 L15.72,17.91 C15.6379054,17.8116392 15.5920204,17.6881026 15.59,17.56 C15.587326,17.3982116 15.6490429,17.2419897 15.7615694,17.1257123 C15.8740959,17.009435 16.0282109,16.9426305 16.19,16.94 C16.3534979,16.934616 16.5123071,16.9951271 16.6307663,17.1079454 C16.7492255,17.2207637 16.8174069,17.376434 16.82,17.54 C16.8155898,17.6644556 16.7775795,17.7853976 16.71,17.89 L16.71,19.12 Z M18.01,15.37 L16.4,15.37 L14.19,15.37 L14.19,14.23 C14.19,13.3557577 14.895775,12.6454984 15.77,12.64 L16.43,12.64 C17.3081328,12.64 18.02,13.3518672 18.02,14.23 L18.01,15.37 Z M11.71,13.51 L8.53,13.51 L8.53,12.01 L12.24,12.01 C11.9646824,12.4694703 11.7844517,12.9795571 11.71,13.51 L11.71,13.51 Z M11.53,20.67 L5.87,20.67 C5.39721561,20.67 5.01086859,20.2926595 5,19.82 L5,5.87 C5,5.38951227 5.38951227,5 5.87,5 L17.8,5 C18.2804877,5 18.67,5.38951227 18.67,5.87 L18.67,10.7 C18.2126023,10.4107081 17.7030359,10.2136758 17.17,10.12 L17.17,6.5 L6.5,6.5 L6.5,19.17 L11.44,19.17 L11.44,20.37 C11.4434507,20.4710708 11.4568487,20.5715559 11.48,20.67 L11.53,20.67 Z M8.53,9.01 L15.03,9.01 L15.03,10.12 C14.6322526,10.1907849 14.2477579,10.3223226 13.89,10.51 L8.53,10.51 L8.53,9.01 Z M8.53,15.01 L11.16,15.01 L11.16,16.51 L8.53,16.51 L8.53,15.01 Z" id="Shape"></path>
        </g>
    </g>
</svg>